M48
; DRILL file {KiCad 9.0.7} date 2026-03-19T11:40:24+0530
; FORMAT={-:-/ absolute / metric / decimal}
; #@! TF.CreationDate,2026-03-19T11:40:24+05:30
; #@! TF.GenerationSoftware,Kicad,Pcbnew,9.0.7
; #@! TF.FileFunction,Plated,1,2,PTH
FMAT,2
METRIC
; #@! TA.AperFunction,Plated,PTH,ViaDrill
T1C0.300
; #@! TA.AperFunction,Plated,PTH,ComponentDrill
T2C0.800
; #@! TA.AperFunction,Plated,PTH,ComponentDrill
T3C0.864
; #@! TA.AperFunction,Plated,PTH,ComponentDrill
T4C1.020
; #@! TA.AperFunction,Plated,PTH,ComponentDrill
T5C1.067
; #@! TA.AperFunction,Plated,PTH,ComponentDrill
T6C1.092
; #@! TA.AperFunction,Plated,PTH,ComponentDrill
T7C1.100
; #@! TA.AperFunction,Plated,PTH,ComponentDrill
T8C1.524
; #@! TA.AperFunction,Plated,PTH,ComponentDrill
T9C1.750
%
G90
G05
T1
X147.5Y-92.0
X154.9Y-125.5
X154.95Y-111.8
X160.3Y-91.2
X161.45Y-90.0
X169.35Y-117.2
X173.75Y-118.9
X174.05Y-92.35
X174.05Y-122.85
X174.6Y-99.4
X174.65Y-118.9
X175.2Y-97.35
X175.5Y-119.5
X184.75Y-94.5
X186.85Y-99.9
T2
X186.75Y-111.3
X191.75Y-111.3
X197.05Y-104.4
X202.05Y-104.4
T3
X186.067Y-102.1
X188.567Y-102.1
X193.9Y-119.85
X196.4Y-119.85
T4
X113.55Y-121.225
X116.09Y-121.225
X118.63Y-121.225
T5
X191.8Y-88.3
X199.3Y-88.3
X211.967Y-101.2
X219.467Y-101.2
T6
X124.684Y-121.1
X146.427Y-121.1
X151.223Y-121.15
X172.966Y-121.15
T7
X149.62Y-116.35
X149.67Y-86.6
X152.16Y-116.35
X152.21Y-86.6
X154.7Y-116.35
X154.75Y-86.6
X161.22Y-86.6
X163.76Y-86.6
X166.3Y-86.6
X172.52Y-112.7
X172.77Y-86.55
X173.22Y-106.05
X175.06Y-112.7
X175.31Y-86.55
X175.76Y-106.05
X177.6Y-112.7
X177.85Y-86.55
X178.3Y-106.05
X202.37Y-128.0
X203.1Y-113.15
X203.1Y-115.69
X203.1Y-118.23
X204.91Y-128.0
X207.45Y-128.0
X208.32Y-85.3
X209.67Y-115.2
X210.86Y-85.3
X212.21Y-115.2
X213.4Y-85.3
X214.75Y-115.2
T8
X118.35Y-84.6
X118.35Y-115.105
X124.7Y-84.6
X131.05Y-84.6
X137.4Y-84.6
X137.4Y-115.105
T9
X104.3Y-96.17
X104.3Y-100.05
X217.15Y-122.887
X217.15Y-126.767
M30
